<svg width="25" height="25" viewBox="0 0 25 25" fill="none" xmlns="http://www.w3.org/2000/svg">
<path d="M17.1423 12.4665H21.8173C22.0239 12.4665 22.2221 12.5486 22.3683 12.6947C22.5144 12.8408 22.5965 13.039 22.5965 13.2457V19.479C22.5965 19.6857 22.5144 19.8838 22.3683 20.03C22.2221 20.1761 22.0239 20.2582 21.8173 20.2582H3.1173C2.91065 20.2582 2.71247 20.1761 2.56635 20.03C2.42023 19.8838 2.33813 19.6857 2.33813 19.479V13.2457C2.33813 13.039 2.42023 12.8408 2.56635 12.6947C2.71247 12.5486 2.91065 12.4665 3.1173 12.4665H7.7923" stroke="black" stroke-width="1.55833" stroke-linecap="round" stroke-linejoin="round"/>
<path d="M12.4675 2.33806V12.4672" stroke="black" stroke-width="1.55833" stroke-linecap="round" stroke-linejoin="round"/>
<path d="M7.7915 7.79143L12.4665 12.4664L17.1415 7.79143" stroke="black" stroke-width="1.55833" stroke-linecap="round" stroke-linejoin="round"/>
<path d="M18.3104 17.5317C18.9558 17.5317 19.4791 17.0085 19.4791 16.363C19.4791 15.7175 18.9558 15.1942 18.3104 15.1942C17.6649 15.1942 17.1416 15.7175 17.1416 16.363C17.1416 17.0085 17.6649 17.5317 18.3104 17.5317Z" fill="black"/>
</svg>
