<svg width="25" height="25" viewBox="0 0 25 25" fill="none" xmlns="http://www.w3.org/2000/svg">
<path d="M12.4665 17.1414C15.0484 17.1414 17.1415 15.0484 17.1415 12.4664C17.1415 9.88451 15.0484 7.79144 12.4665 7.79144C9.88457 7.79144 7.7915 9.88451 7.7915 12.4664C7.7915 15.0484 9.88457 17.1414 12.4665 17.1414Z" stroke="black" stroke-width="1.55833" stroke-linecap="round" stroke-linejoin="round"/>
<path d="M19.2252 7.8598C19.4597 8.1955 19.665 8.55067 19.8388 8.92142L22.3613 10.3239C22.6763 11.7347 22.6796 13.1972 22.3711 14.6093L19.8388 16.0118C19.665 16.3826 19.4597 16.7378 19.2252 17.0734L19.2739 19.9661C18.2048 20.9403 16.9395 21.6742 15.5631 22.1186L13.0795 20.6284C12.671 20.6576 12.2609 20.6576 11.8523 20.6284L9.37848 22.1088C7.99771 21.6726 6.72824 20.9415 5.65796 19.9661L5.70666 17.0832C5.47414 16.7428 5.26897 16.3846 5.09306 16.0118L2.57051 14.6093C2.25553 13.1986 2.25221 11.7361 2.56077 10.3239L5.09306 8.92142C5.2669 8.55067 5.47218 8.1955 5.70666 7.8598L5.65796 4.96715C6.72703 3.99296 7.99232 3.25902 9.36874 2.8147L11.8523 4.30485C12.2609 4.27563 12.671 4.27563 13.0795 4.30485L15.5534 2.82444C16.9341 3.26067 18.2036 3.99178 19.2739 4.96715L19.2252 7.8598Z" stroke="black" stroke-width="1.55833" stroke-linecap="round" stroke-linejoin="round"/>
</svg>
