<svg width="25" height="25" viewBox="0 0 25 25" fill="none" xmlns="http://www.w3.org/2000/svg">
<path d="M21.0364 5.45337H3.89478" stroke="black" stroke-width="1.55833" stroke-linecap="round" stroke-linejoin="round"/>
<path d="M10.1294 10.1284V16.3618" stroke="black" stroke-width="1.55833" stroke-linecap="round" stroke-linejoin="round"/>
<path d="M14.8057 10.1284V16.3618" stroke="black" stroke-width="1.55833" stroke-linecap="round" stroke-linejoin="round"/>
<path d="M19.4806 5.45337V20.2575C19.4806 20.4642 19.3985 20.6624 19.2524 20.8085C19.1062 20.9546 18.908 21.0367 18.7014 21.0367H6.23473C6.02809 21.0367 5.8299 20.9546 5.68378 20.8085C5.53766 20.6624 5.45557 20.4642 5.45557 20.2575V5.45337" stroke="black" stroke-width="1.55833" stroke-linecap="round" stroke-linejoin="round"/>
<path d="M16.3625 5.45367V3.89534C16.3625 3.48204 16.1983 3.08567 15.906 2.79343C15.6138 2.50119 15.2174 2.33701 14.8041 2.33701H10.1291C9.71584 2.33701 9.31947 2.50119 9.02723 2.79343C8.73498 3.08567 8.5708 3.48204 8.5708 3.89534V5.45367" stroke="black" stroke-width="1.55833" stroke-linecap="round" stroke-linejoin="round"/>
</svg>
