<svg width="25" height="25" viewBox="0 0 25 25" fill="none" xmlns="http://www.w3.org/2000/svg">
<path d="M20.2573 3.89569H4.67394C4.24362 3.89569 3.89478 4.24454 3.89478 4.67486V20.2582C3.89478 20.6885 4.24362 21.0374 4.67394 21.0374H20.2573C20.6876 21.0374 21.0364 20.6885 21.0364 20.2582V4.67486C21.0364 4.24454 20.6876 3.89569 20.2573 3.89569Z" stroke="black" stroke-width="1.55833" stroke-linecap="round" stroke-linejoin="round"/>
<path d="M3.89478 15.5839H7.4692C7.57038 15.5836 7.67063 15.6032 7.76422 15.6416C7.85781 15.6801 7.9429 15.7366 8.01462 15.8079L9.9041 17.6974C9.97582 17.7688 10.0609 17.8253 10.1545 17.8637C10.2481 17.9022 10.3483 17.9218 10.4495 17.9214H14.4817C14.5829 17.9218 14.6831 17.9022 14.7767 17.8637C14.8703 17.8253 14.9554 17.7688 15.0271 17.6974L16.9166 15.8079C16.9883 15.7366 17.0734 15.6801 17.167 15.6416C17.2606 15.6032 17.3608 15.5836 17.462 15.5839H21.0364" stroke="black" stroke-width="1.55833" stroke-linecap="round" stroke-linejoin="round"/>
</svg>
