<svg width="57" height="57" viewBox="0 0 57 57" fill="none" xmlns="http://www.w3.org/2000/svg">
<rect x="0.5" y="0.5" width="56" height="56" rx="28" fill="white"/>
<rect x="0.5" y="0.5" width="56" height="56" rx="28" stroke="black" stroke-opacity="0.05"/>
<path d="M28.2285 28.2803L40.2285 16.2803" stroke="black" stroke-width="2" stroke-linecap="round" stroke-linejoin="round"/>
<path d="M36.7165 19.7926C34.5891 17.6588 31.7381 16.4015 28.7279 16.2694C25.7177 16.1373 22.7675 17.1402 20.4614 19.0794C18.1553 21.0187 16.6613 23.7531 16.275 26.7414C15.8888 29.7297 16.6385 32.7541 18.3758 35.216C20.113 37.6779 22.7112 39.3979 25.6561 40.0355C28.601 40.6731 31.678 40.1819 34.278 38.6591C36.878 37.1364 38.8116 34.693 39.6961 31.8126C40.5806 28.9321 40.3514 25.8247 39.054 23.1051" stroke="black" stroke-width="2" stroke-linecap="round" stroke-linejoin="round"/>
<path d="M32.4654 24.0427C31.4744 23.0545 30.1686 22.4447 28.7748 22.3191C27.3809 22.1935 25.9871 22.5601 24.8355 23.3553C23.6839 24.1505 22.8472 25.3239 22.4707 26.6718C22.0942 28.0197 22.2018 29.4568 22.7748 30.7337C23.3477 32.0105 24.3498 33.0463 25.607 33.6611C26.8641 34.276 28.297 34.431 29.6566 34.0993C31.0162 33.7677 32.2166 32.9702 33.0494 31.8455C33.8822 30.7208 34.2948 29.3399 34.2154 27.9427" stroke="black" stroke-width="2" stroke-linecap="round" stroke-linejoin="round"/>
</svg>
