<svg width="37" height="37" viewBox="0 0 37 37" fill="none" xmlns="http://www.w3.org/2000/svg">
<g clip-path="url(#clip0_11_38524)">
<path d="M28.2374 8.76367H8.76367V28.2374H28.2374V8.76367Z" fill="white"/>
<path d="M28.2353 37L36.9984 28.2368L32.6169 27.4893L28.2353 28.2368L27.4355 32.2446L28.2353 37Z" fill="#EA4335"/>
<path d="M0 28.2368V34.0789C0 35.6928 1.30717 37 2.92105 37H8.76316L9.66291 32.6184L8.76316 28.2368L3.98894 27.4893L0 28.2368Z" fill="#188038"/>
<path d="M36.9984 8.76316V2.92105C36.9984 1.30717 35.6913 0 34.0774 0H28.2353C27.7021 2.17315 27.4355 3.77242 27.4355 4.79782C27.4355 5.82321 27.7021 7.14499 28.2353 8.76316C30.1734 9.31814 31.6339 9.59564 32.6169 9.59564C33.5998 9.59564 35.0603 9.31814 36.9984 8.76316Z" fill="#1967D2"/>
<path d="M36.9995 8.76367H28.2363V28.2374H36.9995V8.76367Z" fill="#FBBC04"/>
<path d="M28.2374 28.2363H8.76367V36.9995H28.2374V28.2363Z" fill="#34A853"/>
<path d="M28.2368 0H2.92105C1.30717 0 0 1.30717 0 2.92105V28.2368H8.76316V8.76316H28.2368V0Z" fill="#4285F4"/>
<path d="M12.7568 23.8695C12.0289 23.3778 11.5251 22.6597 11.25 21.7103L12.9393 21.0142C13.0927 21.5984 13.3605 22.0511 13.7426 22.3724C14.1224 22.6938 14.5849 22.852 15.1253 22.852C15.6778 22.852 16.1525 22.684 16.5493 22.3481C16.9461 22.0122 17.1457 21.5838 17.1457 21.0653C17.1457 20.5346 16.9363 20.1013 16.5176 19.7654C16.0989 19.4295 15.5732 19.2615 14.9451 19.2615H13.969V17.5892H14.8453C15.3857 17.5892 15.8409 17.4432 16.2109 17.1511C16.5809 16.859 16.7659 16.4598 16.7659 15.951C16.7659 15.4982 16.6004 15.138 16.2693 14.8678C15.9383 14.5976 15.5196 14.4613 15.0109 14.4613C14.5143 14.4613 14.1199 14.5927 13.8278 14.858C13.5359 15.1241 13.3165 15.46 13.1901 15.8342L11.5178 15.138C11.7393 14.5099 12.1458 13.9549 12.7422 13.4754C13.3386 12.9959 14.1005 12.7549 15.0255 12.7549C15.7095 12.7549 16.3253 12.8863 16.8706 13.1517C17.4159 13.417 17.8443 13.7846 18.1534 14.2519C18.4626 14.7217 18.6159 15.2475 18.6159 15.8317C18.6159 16.4281 18.4723 16.932 18.1851 17.3458C17.8978 17.7596 17.5449 18.0761 17.1262 18.2976V18.3974C17.6668 18.6203 18.1364 18.9864 18.4845 19.4563C18.8374 19.9309 19.0151 20.4981 19.0151 21.1602C19.0151 21.8223 18.8472 22.4138 18.5113 22.9323C18.1753 23.4508 17.7104 23.8598 17.1213 24.1567C16.5298 24.4537 15.8653 24.6046 15.1277 24.6046C14.2733 24.6071 13.4846 24.3612 12.7568 23.8695ZM23.1338 15.4861L21.2789 16.8273L20.3515 15.4203L23.6791 13.0202H24.9546V24.3417H23.1338V15.4861Z" fill="#4285F4"/>
</g>
<defs>
<clipPath id="clip0_11_38524">
<rect width="37" height="37" fill="white"/>
</clipPath>
</defs>
</svg>
