<svg width="56" height="56" viewBox="0 0 56 56" fill="none" xmlns="http://www.w3.org/2000/svg">
<rect width="56" height="56" rx="28" fill="#161614" fill-opacity="0.04"/>
<g clip-path="url(#clip0_11_40104)">
<path d="M27.9459 14C20.2448 14 14 20.2208 14 27.8947C14 34.0338 17.9959 39.2421 23.5371 41.0794C24.234 41.208 24.4899 40.778 24.4899 40.411C24.4899 40.0797 24.4769 38.9851 24.471 37.824C20.5912 38.6646 19.7725 36.1846 19.7725 36.1846C19.1381 34.5786 18.2241 34.1516 18.2241 34.1516C16.9588 33.2892 18.3194 33.3069 18.3194 33.3069C19.7199 33.4049 20.4573 34.7388 20.4573 34.7388C21.7011 36.863 23.7197 36.2488 24.5155 35.8939C24.6407 34.9957 25.0021 34.3829 25.4009 34.0359C22.3034 33.6845 19.0471 32.4931 19.0471 27.169C19.0471 25.6521 19.5919 24.4125 20.4841 23.4395C20.3393 23.0895 19.862 21.6763 20.6192 19.7624C20.6192 19.7624 21.7902 19.389 24.4553 21.1867C25.5676 20.8787 26.7607 20.7244 27.9459 20.7192C29.131 20.7244 30.325 20.8787 31.4395 21.1867C34.1014 19.389 35.2708 19.7624 35.2708 19.7624C36.0299 21.6763 35.5523 23.0895 35.4075 23.4395C36.3017 24.4125 36.8428 25.652 36.8428 27.169C36.8428 32.5057 33.5803 33.6809 30.4749 34.0248C30.9751 34.456 31.4208 35.3016 31.4208 36.5979C31.4208 38.457 31.4046 39.9533 31.4046 40.411C31.4046 40.7807 31.6556 41.214 32.3626 41.0776C37.9007 39.2382 41.8916 34.0318 41.8916 27.8947C41.8916 20.2208 35.6477 14 27.9459 14Z" fill="#161614"/>
<path d="M19.2233 33.7933C19.1926 33.8623 19.0835 33.883 18.9843 33.8357C18.8831 33.7904 18.8262 33.6962 18.859 33.6269C18.8891 33.5559 18.9983 33.536 19.0992 33.5838C19.2006 33.629 19.2584 33.724 19.2233 33.7933ZM19.9093 34.4031C19.8428 34.4646 19.7127 34.4361 19.6244 34.339C19.5332 34.2421 19.5162 34.1126 19.5836 34.0502C19.6522 33.9888 19.7783 34.0175 19.8698 34.1145C19.961 34.2124 19.9787 34.3411 19.9091 34.4033L19.9093 34.4031ZM20.3799 35.1834C20.2944 35.2426 20.1546 35.1871 20.0683 35.0635C19.9829 34.9401 19.9829 34.7919 20.0701 34.7325C20.1568 34.6731 20.2944 34.7265 20.3819 34.8491C20.4672 34.9747 20.4672 35.1229 20.3798 35.1835L20.3799 35.1834ZM21.1757 36.0871C21.0993 36.171 20.9365 36.1486 20.8173 36.0339C20.6954 35.9219 20.6614 35.7629 20.7381 35.6789C20.8154 35.5948 20.9792 35.6184 21.0993 35.7321C21.2203 35.8439 21.2573 36.0041 21.1758 36.0871H21.1757ZM22.2043 36.3922C22.1707 36.501 22.0138 36.5505 21.8559 36.5043C21.6982 36.4566 21.5949 36.3291 21.6268 36.2192C21.6596 36.1097 21.8171 36.0581 21.9762 36.1076C22.1337 36.155 22.2372 36.2815 22.2044 36.3922H22.2043ZM23.375 36.5216C23.379 36.6362 23.245 36.7313 23.0792 36.7333C22.9124 36.7369 22.7775 36.6442 22.7758 36.5315C22.7758 36.4158 22.9067 36.3216 23.0734 36.3189C23.2392 36.3156 23.375 36.4077 23.375 36.5216ZM24.525 36.4777C24.5449 36.5895 24.4296 36.7043 24.265 36.7349C24.1031 36.7643 23.9533 36.6953 23.9326 36.5845C23.9125 36.4698 24.03 36.3551 24.1915 36.3253C24.3564 36.2968 24.504 36.364 24.525 36.4777Z" fill="#161614"/>
</g>
<defs>
<clipPath id="clip0_11_40104">
<rect width="28" height="27.1385" fill="white" transform="translate(14 14)"/>
</clipPath>
</defs>
</svg>
