<svg width="56" height="56" viewBox="0 0 56 56" fill="none" xmlns="http://www.w3.org/2000/svg">
<rect width="56" height="56" rx="28" fill="#4A8CFF" fill-opacity="0.1"/>
<g clip-path="url(#clip0_11_40057)">
<path d="M41.6568 27.0521L29.0504 14.4025L27.8288 13.1768L18.339 22.6991L13.9996 27.0521C13.7828 27.2707 13.6611 27.5665 13.6611 27.8749C13.6611 28.1833 13.7828 28.4791 13.9996 28.6977L22.6693 37.3972L27.8288 42.573L37.3173 33.0508L37.4651 32.9038L41.6568 28.7043C41.7654 28.5961 41.8516 28.4674 41.9104 28.3256C41.9693 28.1838 41.9996 28.0318 41.9996 27.8782C41.9996 27.7246 41.9693 27.5725 41.9104 27.4308C41.8516 27.289 41.7654 27.1603 41.6568 27.0521ZM27.8288 32.2214L23.4972 27.8749L27.8288 23.5285L32.1591 27.8749L27.8288 32.2214Z" fill="#2684FF"/>
<path d="M27.8297 23.5287C26.4674 22.162 25.6995 20.31 25.6936 18.377C25.6877 16.4441 26.4444 14.5874 27.7983 13.2124L18.3203 22.719L23.4785 27.8948L27.8297 23.5287Z" fill="url(#paint0_linear_11_40057)"/>
<path d="M32.1713 27.8632L27.8292 32.2215C29.1967 33.594 29.9649 35.4552 29.9649 37.396C29.9649 39.3367 29.1967 41.198 27.8292 42.5705L37.3334 33.039L32.1713 27.8632Z" fill="url(#paint1_linear_11_40057)"/>
</g>
<defs>
<linearGradient id="paint0_linear_11_40057" x1="27.0542" y1="19.131" x2="20.9847" y2="25.1785" gradientUnits="userSpaceOnUse">
<stop offset="0.18" stop-color="#0052CC"/>
<stop offset="1" stop-color="#2684FF"/>
</linearGradient>
<linearGradient id="paint1_linear_11_40057" x1="28.6558" y1="36.5666" x2="34.7135" y2="30.5309" gradientUnits="userSpaceOnUse">
<stop offset="0.18" stop-color="#0052CC"/>
<stop offset="1" stop-color="#2684FF"/>
</linearGradient>
<clipPath id="clip0_11_40057">
<rect width="28" height="29.75" fill="white" transform="translate(14 13)"/>
</clipPath>
</defs>
</svg>
