<svg width="49" height="49" viewBox="0 0 49 49" fill="none" xmlns="http://www.w3.org/2000/svg">
<rect x="0.5" y="0.5" width="48" height="48" rx="24" stroke="black" stroke-opacity="0.05"/>
<path d="M18.701 33.5H14.3473V19.4795H18.701V33.5ZM16.5215 17.567C15.1295 17.567 14 16.4135 14 15.0215C14 14.3528 14.2657 13.7114 14.7385 13.2385C15.2114 12.7657 15.8528 12.5 16.5215 12.5C17.1902 12.5 17.8316 12.7657 18.3045 13.2385C18.7773 13.7114 19.043 14.3528 19.043 15.0215C19.043 16.4135 17.9135 17.567 16.5215 17.567ZM34.9955 33.5H30.6515V26.675C30.6515 25.0483 30.6185 22.9625 28.388 22.9625C26.1245 22.9625 25.7772 24.7295 25.7772 26.558V33.5H21.428V19.4795H25.6033V21.392H25.664C26.2452 20.2902 27.665 19.1277 29.783 19.1277C34.1893 19.1277 34.9993 22.0295 34.9993 25.7983V33.5H34.9955Z" fill="black"/>
</svg>
