<svg width="8" height="8" viewBox="0 0 8 8" fill="none" xmlns="http://www.w3.org/2000/svg">
<path d="M6.18573 0.0661578C5.67959 0.0992409 5.22975 0.146332 5.17819 0.174647C5.0235 0.254821 4.92986 0.386856 4.91119 0.537667C4.89726 0.693247 4.94408 0.712024 5.44993 0.773421L5.6701 0.801736V2.81414C5.6701 4.0111 5.65144 4.80301 5.62803 4.77946C5.60461 4.75115 4.93934 3.73332 4.14723 2.51729C3.35542 1.29679 2.69933 0.292673 2.68985 0.283434C2.68037 0.273896 2.16504 0.302211 1.54658 0.344831C0.787366 0.396691 0.370421 0.443782 0.285965 0.490874C0.149946 0.561511 0 0.811274 0 0.976391C0 1.07534 0.178098 1.1272 0.552964 1.1272H0.749731V6.91466L0.431169 7.01362C0.182839 7.08902 0.0983836 7.13611 0.0563038 7.2303C-0.0186694 7.39064 -0.0139279 7.53669 0.0610453 7.53669C0.0891973 7.53669 0.618751 7.5036 1.22772 7.46605C2.43203 7.39541 2.56776 7.36233 2.69429 7.11257C2.73193 7.03716 2.76452 6.95699 2.76452 6.93344C2.76452 6.91466 2.60065 6.85804 2.40359 6.81094C2.20208 6.76385 2.00057 6.71676 1.95849 6.70722C1.87877 6.68368 1.87403 6.53763 1.87403 4.51092V2.33816L3.29852 4.58633C4.79324 6.94268 4.98083 7.21152 5.21049 7.32925C5.49645 7.48006 6.22277 7.37634 6.58816 7.13611L6.70076 7.06548L6.71025 3.85135L6.72417 0.632446L6.9725 0.585354C7.26766 0.528725 7.40367 0.39222 7.40367 0.156466C7.40367 0.00565434 7.39419 -0.00388318 7.25373 0.000885565C7.16986 0.00476017 6.68713 0.0330746 6.18573 0.0661578Z" fill="black"/>
</svg>
