<svg width="35" height="37" viewBox="0 0 35 37" fill="none" xmlns="http://www.w3.org/2000/svg">
<g clip-path="url(#clip0_11_38519)">
<path d="M12.3247 1.16179C6.70732 1.58074 1.93191 1.96603 1.70738 2.01115C1.07786 2.1243 0.50518 2.55471 0.235893 3.1212L0 3.61964L0.0227366 15.4993L0.0561312 27.3789L0.415655 28.1151C0.618153 28.5226 1.98875 30.4255 3.48297 32.3842C6.43803 36.2457 6.65119 36.4612 7.77452 36.5744C8.10065 36.6081 10.5498 36.4949 13.2015 36.3366C15.8645 36.1669 20.1333 35.9062 22.6955 35.7594C33.6382 35.0898 33.0762 35.1464 33.705 34.6028C34.4915 33.9461 34.4354 35.0218 34.4688 20.5833C34.4915 8.34128 34.4802 7.53775 34.3004 7.16391C34.0872 6.74496 33.705 6.45062 28.7164 2.91709C25.3798 0.561645 25.1439 0.437033 23.649 0.414116C23.0315 0.391915 17.9307 0.731374 12.3247 1.16179ZM24.9528 2.71299C25.4246 2.92783 28.8742 5.35131 29.3793 5.8161C29.5143 5.95217 29.5591 6.06532 29.4916 6.13336C29.3346 6.26943 7.98697 7.5492 7.36952 7.45825C7.08887 7.41313 6.67321 7.2434 6.43732 7.08442C5.45964 6.41624 3.03321 4.41171 3.03321 4.2649C3.03321 3.87961 2.95435 3.87961 12.4711 3.18923C14.2914 3.06462 17.2799 2.83831 19.1002 2.69078C23.0429 2.37353 24.2231 2.38498 24.9528 2.71299ZM31.739 8.90776C31.896 9.06603 32.031 9.37183 32.0758 9.66617C32.1092 9.93831 32.1319 15.0116 32.1092 20.9228C32.0758 31.0693 32.0644 31.7038 31.8733 31.9981C31.761 32.1793 31.5365 32.372 31.3674 32.4286C30.8963 32.6212 8.52696 33.901 8.06654 33.7649C7.85339 33.7083 7.56065 33.5271 7.40363 33.3689L7.13363 33.0745L7.10024 22.1352C7.0775 14.4573 7.10024 11.0598 7.19047 10.754C7.25797 10.5277 7.42637 10.2556 7.57273 10.1653C7.77523 10.0293 9.10106 9.91611 13.6626 9.64468C16.8649 9.4635 21.8194 9.1577 24.6622 8.98797C31.4242 8.5683 31.4022 8.5683 31.739 8.90776Z" fill="black"/>
<path d="M25.7259 12.657C24.5124 12.7365 23.4338 12.8497 23.3102 12.9177C22.9393 13.1103 22.7148 13.4276 22.67 13.79C22.6366 14.1638 22.7489 14.2089 23.9617 14.3565L24.4896 14.4245V19.26C24.4896 22.1361 24.4449 24.0389 24.3887 23.9823C24.3326 23.9143 22.7375 21.4686 20.8383 18.5467C18.9398 15.614 17.3667 13.2013 17.3439 13.1791C17.3212 13.1562 16.0856 13.2242 14.6027 13.3266C12.7824 13.4512 11.7827 13.5644 11.5802 13.6775C11.2541 13.8473 10.8945 14.4474 10.8945 14.8442C10.8945 15.0819 11.3216 15.2065 12.2204 15.2065H12.6921V29.1129L11.9283 29.3507C11.3329 29.5319 11.1304 29.645 11.0295 29.8713C10.8498 30.2566 10.8611 30.6075 11.0409 30.6075C11.1084 30.6075 12.3781 30.528 13.8382 30.4378C16.7258 30.2681 17.0512 30.1886 17.3546 29.5884C17.4448 29.4072 17.523 29.2146 17.523 29.158C17.523 29.1129 17.1301 28.9768 16.6576 28.8637C16.1744 28.7505 15.6913 28.6374 15.5904 28.6145C15.3992 28.5579 15.3879 28.207 15.3879 23.3371V18.1163L18.8033 23.5183C22.3872 29.1802 22.837 29.8262 23.3876 30.1091C24.0733 30.4715 25.8148 30.2222 26.6908 29.645L26.9608 29.4753L26.9836 21.7522L27.017 14.0177L27.6124 13.9046C28.3201 13.7685 28.6462 13.4405 28.6462 12.874C28.6462 12.5116 28.6234 12.4887 28.2867 12.5002C28.0856 12.5095 26.9281 12.5775 25.7259 12.657Z" fill="black"/>
</g>
<defs>
<clipPath id="clip0_11_38519">
<rect width="34.4915" height="37" fill="white"/>
</clipPath>
</defs>
</svg>
