<svg width="39" height="37" viewBox="0 0 39 37" fill="none" xmlns="http://www.w3.org/2000/svg">
<g clip-path="url(#clip0_11_38549)">
<path d="M33.3989 2.3125H13.4531C13.0211 2.3125 12.6068 2.48353 12.3013 2.78798C11.9958 3.09242 11.8242 3.50533 11.8242 3.93588V5.78125L23.0663 9.25L35.0277 5.78125V3.93588C35.0277 3.50533 34.8561 3.09242 34.5506 2.78798C34.2452 2.48353 33.8309 2.3125 33.3989 2.3125Z" fill="#0364B8"/>
<path d="M36.9401 20.1249C37.1101 19.5925 37.2457 19.0499 37.3462 18.5003C37.346 18.3653 37.3102 18.2327 37.2424 18.1158C37.1746 17.9989 37.0772 17.9019 36.9598 17.8343L36.9448 17.8251L36.9401 17.8228L24.3661 10.6841C24.3119 10.649 24.2557 10.617 24.1979 10.5881C23.9574 10.4691 23.6926 10.4072 23.4241 10.4072C23.1556 10.4072 22.8907 10.4691 22.6502 10.5881C22.5924 10.6166 22.5363 10.6482 22.482 10.6829L9.90802 17.8239L9.90337 17.8263L9.88945 17.8343C9.77191 17.9017 9.67422 17.9987 9.6062 18.1156C9.53818 18.2325 9.50223 18.3652 9.50195 18.5003C9.60246 19.0499 9.73809 19.5925 9.90802 20.1249L23.2408 29.8432L36.9401 20.1249Z" fill="#0A2767"/>
<path d="M28.0656 5.78125H19.9443L17.5996 9.25L19.9443 12.7188L28.0656 19.6562H35.0266V12.7188L28.0656 5.78125Z" fill="#28A8EA"/>
<path d="M11.8242 5.78125H19.9454V12.7188H11.8242V5.78125Z" fill="#0078D4"/>
<path d="M28.0645 5.78125H35.0255V12.7188H28.0645V5.78125Z" fill="#50D9FF"/>
<path d="M28.0667 19.6562L19.9454 12.7188H11.8242V19.6562L19.9454 26.5938L32.5125 28.638L28.0667 19.6562Z" fill="#0364B8"/>
<path d="M19.9453 12.7188H28.0665V19.6562H19.9453V12.7188Z" fill="#0078D4"/>
<path d="M11.8242 19.6562H19.9454V26.5938H11.8242V19.6562Z" fill="#064A8C"/>
<path d="M28.0645 19.6562H35.0255V26.5938H28.0645V19.6562Z" fill="#0078D4"/>
<path opacity="0.5" d="M23.6448 29.1582L9.96289 19.2145L10.5372 18.2085C10.5372 18.2085 23.0033 25.2848 23.1935 25.3911C23.2714 25.4222 23.3548 25.437 23.4386 25.4346C23.5224 25.4322 23.6049 25.4127 23.6808 25.3773L36.365 18.1738L36.9405 19.1786L23.6448 29.1582Z" fill="#0A2767"/>
<path d="M36.9594 19.1672L36.9432 19.1764L36.9397 19.1787L24.3657 26.3174C24.116 26.4779 23.8291 26.5718 23.5326 26.5903C23.236 26.6087 22.9397 26.551 22.6719 26.4226L27.0504 32.2744L36.6265 34.3522V34.3568C36.8492 34.1962 37.0306 33.9852 37.1556 33.7412C37.2807 33.4972 37.3458 33.2271 37.3458 32.9531V18.5C37.3458 18.6352 37.3101 18.7681 37.2423 18.8852C37.1745 19.0023 37.0769 19.0995 36.9594 19.1672Z" fill="#1490DF"/>
<path opacity="0.05" d="M37.3458 32.9536V32.1003L25.7637 25.5236L24.3657 26.3179C24.116 26.4784 23.8291 26.5723 23.5326 26.5908C23.236 26.6092 22.9397 26.5515 22.6719 26.4231L27.0504 32.2749L36.6265 34.3527V34.3573C36.8492 34.1967 37.0306 33.9858 37.1556 33.7417C37.2807 33.4977 37.3458 33.2276 37.3458 32.9536Z" fill="black"/>
<path opacity="0.1" d="M37.2878 33.3964L24.592 26.1895L24.3657 26.3166C24.1161 26.4773 23.8293 26.5715 23.5327 26.5901C23.2362 26.6087 22.9398 26.5512 22.6719 26.423L27.0504 32.2748L36.6265 34.3526V34.3572C36.9512 34.1227 37.1848 33.7838 37.2878 33.3975V33.3964Z" fill="black"/>
<path d="M9.90805 19.1822V19.1706H9.89645L9.86164 19.1475C9.75073 19.0797 9.65932 18.9844 9.5963 18.8709C9.53328 18.7575 9.50078 18.6297 9.50199 18.5V32.9531C9.50168 33.181 9.54648 33.4066 9.63383 33.6172C9.72118 33.8278 9.84936 34.0191 10.011 34.1802C10.1727 34.3413 10.3646 34.469 10.5759 34.5561C10.7872 34.6432 11.0136 34.6878 11.2422 34.6875H35.6059C35.7509 34.6861 35.8951 34.6667 36.0352 34.6297C36.1079 34.6171 36.1783 34.5937 36.244 34.5603C36.2687 34.5579 36.2925 34.55 36.3137 34.5372C36.4086 34.4985 36.4983 34.448 36.5805 34.3869C36.6037 34.3753 36.6153 34.3753 36.6269 34.3522L9.90805 19.1822Z" fill="#28A8EA"/>
<path opacity="0.1" d="M21.1037 28.5212V9.63503C21.1025 9.22663 20.9392 8.83531 20.6494 8.54653C20.3596 8.25775 19.967 8.09497 19.5572 8.09375H11.8571V16.7148L9.90802 17.8224L9.90221 17.8248L9.88829 17.8328C9.77079 17.9005 9.67323 17.9977 9.60541 18.1148C9.53759 18.2319 9.50191 18.3648 9.50195 18.5V18.5058V18.5V30.0625H19.5572C19.967 30.0613 20.3596 29.8985 20.6494 29.6097C20.9392 29.3209 21.1025 28.9296 21.1037 28.5212Z" fill="black"/>
<path opacity="0.2" d="M19.9435 29.6775V10.7913C19.9423 10.3829 19.779 9.99156 19.4892 9.70278C19.1995 9.414 18.8068 9.25122 18.397 9.25H11.8571V16.7148L9.90802 17.8224L9.90221 17.8248L9.88829 17.8328C9.77079 17.9005 9.67323 17.9977 9.60541 18.1148C9.53759 18.2319 9.50191 18.3648 9.50195 18.5V18.5058V18.5V31.2188H18.397C18.8068 31.2175 19.1995 31.0548 19.4892 30.766C19.779 30.4772 19.9423 30.0859 19.9435 29.6775Z" fill="black"/>
<path opacity="0.2" d="M19.9435 27.365V10.7913C19.9423 10.3829 19.779 9.99156 19.4892 9.70278C19.1995 9.414 18.8068 9.25122 18.397 9.25H11.8571V16.7148L9.90802 17.8224L9.90221 17.8248L9.88829 17.8328C9.77079 17.9005 9.67323 17.9977 9.60541 18.1148C9.53759 18.2319 9.50191 18.3648 9.50195 18.5V18.5058V18.5V28.9062H18.397C18.8068 28.905 19.1995 28.7423 19.4892 28.4535C19.779 28.1647 19.9423 27.7734 19.9435 27.365Z" fill="black"/>
<path opacity="0.2" d="M18.7834 27.365V10.7913C18.7821 10.3829 18.6188 9.99156 18.329 9.70278C18.0393 9.414 17.6466 9.25122 17.2368 9.25H11.8571V16.7148L9.90802 17.8224L9.90221 17.8248L9.88829 17.8328C9.77079 17.9005 9.67323 17.9977 9.60541 18.1148C9.53759 18.2319 9.50191 18.3648 9.50195 18.5V18.5058V18.5V28.9062H17.2368C17.6466 28.905 18.0393 28.7423 18.329 28.4535C18.6188 28.1647 18.7821 27.7734 18.7834 27.365Z" fill="black"/>
<path d="M1.76722 9.25H17.237C17.6472 9.25 18.0405 9.41238 18.3306 9.70143C18.6206 9.99048 18.7835 10.3825 18.7835 10.7913V26.2087C18.7835 26.6175 18.6206 27.0095 18.3306 27.2986C18.0405 27.5876 17.6472 27.75 17.237 27.75H1.76722C1.35706 27.75 0.963694 27.5876 0.673667 27.2986C0.383639 27.0095 0.220703 26.6175 0.220703 26.2087L0.220703 10.7913C0.220703 10.3825 0.383639 9.99048 0.673667 9.70143C0.963694 9.41238 1.35706 9.25 1.76722 9.25Z" fill="#0078D4"/>
<path d="M4.70599 15.5728C5.11693 14.7 5.78034 13.9696 6.611 13.4754C7.53128 12.9504 8.57911 12.6887 9.63906 12.7192C10.6205 12.698 11.5889 12.946 12.4386 13.4361C13.2383 13.9108 13.8824 14.607 14.2925 15.4398C14.7393 16.3579 14.9619 17.3682 14.9422 18.3883C14.9637 19.4538 14.7344 20.5095 14.2728 21.4708C13.8538 22.3334 13.1903 23.0545 12.3643 23.5452C11.4814 24.0509 10.4762 24.3056 9.45807 24.2817C8.45508 24.3055 7.46473 24.0547 6.59476 23.5567C5.7886 23.0812 5.13692 22.3843 4.7176 21.5495C4.26778 20.645 4.0422 19.6462 4.05978 18.6369C4.04032 17.58 4.26125 16.5325 4.70599 15.5728ZM6.7363 20.4961C6.95522 21.0479 7.3265 21.5266 7.80714 21.8767C8.29692 22.2183 8.88364 22.3946 9.48128 22.3797C10.1179 22.4043 10.7454 22.2221 11.2691 21.8605C11.7444 21.5106 12.1062 21.0294 12.3098 20.4765C12.538 19.8605 12.6505 19.2079 12.6416 18.5513C12.6487 17.8885 12.5428 17.2293 12.3283 16.6019C12.1392 16.0374 11.7902 15.5395 11.3236 15.1681C10.8137 14.7883 10.1881 14.5952 9.55205 14.6212C8.9414 14.6058 8.34155 14.7835 7.83847 15.1288C7.34839 15.4795 6.96854 15.962 6.74326 16.5198C6.24492 17.7986 6.24202 19.2165 6.73514 20.4973L6.7363 20.4961Z" fill="white"/>
</g>
<defs>
<clipPath id="clip0_11_38549">
<rect width="38.7209" height="37" fill="white"/>
</clipPath>
</defs>
</svg>
