<svg width="391" height="61" viewBox="0 0 391 61" fill="none" xmlns="http://www.w3.org/2000/svg">
<path d="M12.888 48.24V32.976H24.48C34.704 32.976 42.552 27.72 42.552 16.704C42.552 5.18399 34.632 -1.09673e-05 24.48 -1.09673e-05H4.752V48.24H12.888ZM23.688 7.19999C29.232 7.19999 34.128 9.21599 34.128 16.704C34.128 23.688 29.232 25.776 23.688 25.776H12.888V7.19999H23.688ZM55.6245 48.24V28.944C55.6245 23.112 59.3685 18.504 63.4005 18.504C65.7765 18.504 66.7125 20.088 66.7125 22.032C66.7125 24.048 65.6325 26.352 64.4805 27.504H72.7605C73.4085 26.424 74.3445 23.904 74.3445 20.52C74.3445 15.336 71.1045 12.456 66.7125 12.456C60.4485 12.456 56.9205 17.496 55.6245 23.112V13.176H47.5605V48.24H55.6245ZM93.6096 48.96C103.834 48.96 110.746 41.616 110.746 30.744C110.746 19.8 103.834 12.456 93.6096 12.456C83.5296 12.456 76.6176 19.8 76.6176 30.744C76.6176 41.616 83.5296 48.96 93.6096 48.96ZM93.6816 42.264C88.4976 42.264 84.8976 38.808 84.8976 30.744C84.8976 22.608 88.4976 19.152 93.6816 19.152C98.9376 19.152 102.538 22.608 102.538 30.744C102.538 38.808 98.9376 42.264 93.6816 42.264ZM130.533 49.032C137.517 49.032 140.469 44.352 141.621 38.952V48.24H149.685V-1.09673e-05H141.621V22.608C140.469 17.136 137.373 12.456 130.389 12.456C121.893 12.456 116.421 19.44 116.421 30.744C116.421 42.048 121.893 49.032 130.533 49.032ZM124.701 30.744C124.701 22.896 128.517 19.008 133.557 19.008C139.245 19.008 141.621 22.824 141.621 28.584V32.976C141.621 38.736 139.245 42.48 133.629 42.48C128.517 42.48 124.701 38.664 124.701 30.744ZM168.89 48.96C175.874 48.96 179.474 44.208 180.77 38.664V48.24H188.906V13.176H180.77V32.832C180.77 38.592 178.754 42.408 172.85 42.408C167.45 42.408 166.01 39.456 166.01 35.136V13.176H157.946V37.584C157.946 44.856 162.122 48.96 168.89 48.96ZM212.448 48.96C221.232 48.96 226.776 43.992 228.648 37.368L221.376 33.768C220.584 38.808 218.064 42.192 212.592 42.192C207.048 42.192 203.664 38.088 203.664 30.744C203.664 23.328 207.048 19.224 212.592 19.224C217.992 19.224 220.584 22.608 221.376 27.648L228.648 24.048C226.776 17.424 221.232 12.456 212.448 12.456C202.008 12.456 195.456 19.8 195.456 30.744C195.456 41.616 202.008 48.96 212.448 48.96ZM247.404 49.032C252.516 49.032 255.972 46.656 257.484 44.424L254.964 37.224C253.956 39.24 251.94 41.472 249.204 41.472C246.828 41.472 245.028 40.536 245.028 36.72V19.44H255.756V13.176H245.028V3.81599L236.964 8.92799V13.176H231.492V19.44H236.964V38.664C236.964 44.856 240.78 49.032 247.404 49.032ZM270.992 8.20799V-1.09673e-05H262.928V8.20799H270.992ZM270.992 48.24V13.176H262.928V48.24H270.992ZM298.385 48.24L310.913 13.176H302.129L296.225 32.256L293.417 42.984L290.537 32.256L284.561 13.176H275.633L288.089 48.24H298.385ZM323.585 8.20799V-1.09673e-05H315.521V8.20799H323.585ZM323.585 48.24V13.176H315.521V48.24H323.585ZM344.787 49.032C349.899 49.032 353.355 46.656 354.867 44.424L352.347 37.224C351.339 39.24 349.323 41.472 346.587 41.472C344.211 41.472 342.411 40.536 342.411 36.72V19.44H353.139V13.176H342.411V3.81599L334.347 8.92799V13.176H328.875V19.44H334.347V38.664C334.347 44.856 338.163 49.032 344.787 49.032ZM365.111 60.264C370.799 60.264 374.903 57.744 377.423 50.688L390.383 13.176H381.455L375.191 33.048L372.671 42.408L370.151 33.048L363.815 13.176H354.959L366.551 46.08H371.519L370.871 48.024C369.575 51.912 367.847 53.136 365.111 53.136C361.871 53.136 359.711 51.12 357.839 48.456L354.023 54.936C355.967 57.672 360.071 60.264 365.111 60.264Z" fill="#FC4F24"/>
<path d="M0 26.64H390.743V30.24H0V26.64Z" fill="#FC4F24"/>
</svg>
