<svg width="56" height="56" viewBox="0 0 56 56" fill="none" xmlns="http://www.w3.org/2000/svg">
<rect width="56" height="56" rx="28" fill="#37C6D0" fill-opacity="0.1"/>
<g clip-path="url(#clip0_11_39991)">
<path d="M27.1884 30.4554C31.7425 30.4554 35.4344 26.7717 35.4344 22.2277C35.4344 17.6837 31.7425 14 27.1884 14C22.6342 14 18.9424 17.6837 18.9424 22.2277C18.9424 26.7717 22.6342 30.4554 27.1884 30.4554Z" fill="#036C70"/>
<path d="M34.8914 36.518C38.7864 36.518 41.9439 33.3675 41.9439 29.4812C41.9439 25.5948 38.7864 22.4443 34.8914 22.4443C30.9964 22.4443 27.8389 25.5948 27.8389 29.4812C27.8389 33.3675 30.9964 36.518 34.8914 36.518Z" fill="#1A9BA1"/>
<path d="M28.0561 41.7145C31.1721 41.7145 33.6981 39.1941 33.6981 36.085C33.6981 32.976 31.1721 30.4556 28.0561 30.4556C24.9401 30.4556 22.4141 32.976 22.4141 36.085C22.4141 39.1941 24.9401 41.7145 28.0561 41.7145Z" fill="#37C6D0"/>
<path opacity="0.1" d="M28.6353 20.0625H19.2314C18.8988 21.2831 18.8526 22.5638 19.0963 23.8051C19.34 25.0465 19.8671 26.2151 20.6367 27.2203C21.4063 28.2255 22.3977 29.0402 23.5339 29.6013C24.6701 30.1623 25.9206 30.4546 27.1884 30.4554C27.4288 30.4554 27.6666 30.4441 27.9027 30.4242L27.9071 30.4571C26.4371 30.4959 25.0403 31.1059 24.0144 32.1571C22.9884 33.2082 22.4143 34.6175 22.4144 36.0848C22.4144 36.2303 22.4199 36.3747 22.4309 36.5179H28.6353C28.9419 36.5169 29.2357 36.395 29.4525 36.1787C29.6693 35.9624 29.7915 35.6693 29.7924 35.3634V21.217C29.7915 20.9111 29.6693 20.618 29.4525 20.4016C29.2357 20.1853 28.9419 20.0634 28.6353 20.0625Z" fill="black"/>
<path opacity="0.2" d="M27.7673 20.9286H19.0439C18.8562 22.1041 18.9263 23.3061 19.2493 24.452C19.5722 25.5978 20.1404 26.6601 20.9145 27.5657C21.6887 28.4713 22.6505 29.1986 23.7336 29.6975C24.8167 30.1963 25.9954 30.4549 27.1883 30.4554C27.4287 30.4554 27.6666 30.4441 27.9027 30.4242L27.907 30.4571C27.0684 30.4799 26.2454 30.6888 25.4979 31.0687C24.7504 31.4485 24.0971 31.9899 23.5855 32.6532C23.0739 33.3166 22.7169 34.0854 22.5404 34.9037C22.364 35.7221 22.3725 36.5693 22.5653 37.3839H27.7673C28.0738 37.383 28.3676 37.2611 28.5844 37.0448C28.8012 36.8285 28.9234 36.5354 28.9243 36.2295V22.0831C28.9234 21.7772 28.8012 21.484 28.5844 21.2677C28.3676 21.0514 28.0738 20.9295 27.7673 20.9286Z" fill="black"/>
<path opacity="0.2" d="M27.7673 20.9286H19.0439C18.8562 22.1041 18.9263 23.3061 19.2493 24.452C19.5722 25.5978 20.1404 26.6601 20.9145 27.5657C21.6887 28.4713 22.6505 29.1986 23.7336 29.6975C24.8167 30.1963 25.9954 30.4549 27.1883 30.4554C27.4287 30.4554 27.6666 30.4441 27.9027 30.4242L27.907 30.4571C26.5118 30.4937 25.1797 31.045 24.1681 32.0044C23.1565 32.9638 22.5372 34.2633 22.4299 35.6518H27.7673C28.0738 35.6509 28.3676 35.529 28.5844 35.3127C28.8012 35.0963 28.9234 34.8032 28.9243 34.4973V22.0831C28.9234 21.7772 28.8012 21.484 28.5844 21.2677C28.3676 21.0514 28.0738 20.9295 27.7673 20.9286Z" fill="black"/>
<path opacity="0.2" d="M26.8993 20.9286H19.0439C18.8562 22.1041 18.9263 23.3061 19.2493 24.452C19.5722 25.5978 20.1404 26.6601 20.9145 27.5657C21.6887 28.4713 22.6505 29.1986 23.7336 29.6975C24.8167 30.1963 25.9954 30.4549 27.1883 30.4554C27.4287 30.4554 27.6666 30.4441 27.9027 30.4242L27.907 30.4571C26.5118 30.4937 25.1797 31.045 24.1681 32.0044C23.1565 32.9638 22.5372 34.2633 22.4299 35.6518H26.8993C27.2058 35.6509 27.4996 35.529 27.7164 35.3127C27.9332 35.0963 28.0554 34.8032 28.0563 34.4973V22.0831C28.0554 21.7772 27.9332 21.484 27.7164 21.2677C27.4996 21.0514 27.2058 20.9295 26.8993 20.9286Z" fill="black"/>
<path d="M15.325 20.9287H26.8989C27.2058 20.9287 27.5001 21.0503 27.7171 21.2668C27.9341 21.4834 28.056 21.777 28.056 22.0832V33.6314C28.056 33.9376 27.9341 34.2312 27.7171 34.4477C27.5001 34.6642 27.2058 34.7859 26.8989 34.7859H15.325C15.0181 34.7859 14.7238 34.6642 14.5069 34.4477C14.2899 34.2312 14.168 33.9376 14.168 33.6314V22.0832C14.168 21.777 14.2899 21.4834 14.5069 21.2668C14.7238 21.0503 15.0181 20.9287 15.325 20.9287Z" fill="#03787C"/>
<path d="M19.0895 27.7056C18.7971 27.5121 18.5531 27.2543 18.376 26.9521C18.2036 26.6364 18.1177 26.2809 18.1269 25.9215C18.1118 25.435 18.2765 24.96 18.5896 24.5868C18.9183 24.213 19.3434 23.9363 19.8187 23.7866C20.3604 23.6085 20.9279 23.5207 21.4982 23.5268C22.2482 23.4992 22.9972 23.6039 23.7108 23.836V25.3949C23.4007 25.2074 23.0629 25.0698 22.71 24.987C22.3268 24.8929 21.9336 24.8458 21.539 24.8467C21.1232 24.8316 20.7101 24.9188 20.336 25.1004C20.1948 25.1613 20.0745 25.262 19.9898 25.3902C19.9052 25.5183 19.8599 25.6684 19.8595 25.8219C19.8577 26.0119 19.9303 26.1952 20.0617 26.3328C20.2179 26.4942 20.4023 26.6257 20.6059 26.7208C20.8339 26.834 21.1742 26.9841 21.6267 27.1712C21.677 27.1869 21.726 27.2063 21.7734 27.2292C22.2198 27.4036 22.6504 27.6157 23.0606 27.8632C23.3716 28.0543 23.6325 28.3164 23.8219 28.6279C24.017 28.9804 24.1121 29.3792 24.097 29.7815C24.1192 30.2811 23.966 30.7727 23.6639 31.1716C23.3624 31.5381 22.9594 31.808 22.5051 31.9476C21.9711 32.1148 21.4138 32.1958 20.8542 32.1875C20.3533 32.1895 19.8533 32.1483 19.3595 32.0645C18.9415 31.9983 18.5333 31.8808 18.1443 31.7146V30.0673C18.5165 30.3325 18.9325 30.5304 19.3734 30.6519C19.8114 30.7884 20.2669 30.8614 20.7257 30.8684C21.1507 30.8955 21.5749 30.8056 21.9522 30.6086C22.0809 30.5349 22.1872 30.4277 22.2598 30.2986C22.3324 30.1694 22.3686 30.0231 22.3645 29.8751C22.3654 29.7709 22.3454 29.6676 22.3058 29.5712C22.2661 29.4749 22.2076 29.3874 22.1336 29.3139C21.9471 29.1317 21.7315 28.9818 21.4956 28.8704C21.2242 28.7342 20.8232 28.5552 20.2926 28.3335C19.8717 28.1646 19.4686 27.9542 19.0895 27.7056Z" fill="white"/>
</g>
<defs>
<clipPath id="clip0_11_39991">
<rect width="28" height="27.7143" fill="white" transform="translate(14 14)"/>
</clipPath>
</defs>
</svg>
