<svg width="37" height="37" viewBox="0 0 37 37" fill="none" xmlns="http://www.w3.org/2000/svg">
<g clip-path="url(#clip0_11_38541)">
<path fill-rule="evenodd" clip-rule="evenodd" d="M13.5659 0C11.5206 0.00150866 9.86526 1.65802 9.86677 3.69925C9.86526 5.74047 11.5221 7.39698 13.5674 7.39849H17.268V3.70075C17.2695 1.65953 15.6127 0.00301733 13.5659 0C13.5674 0 13.5674 0 13.5659 0M13.5659 9.86667H3.70061C1.6553 9.86818 -0.00150755 11.5247 4.13125e-06 13.5659C-0.00301924 15.6071 1.65379 17.2637 3.6991 17.2667H13.5659C15.6112 17.2652 17.268 15.6086 17.2665 13.5674C17.268 11.5247 15.6112 9.86818 13.5659 9.86667Z" fill="#36C5F0"/>
<path fill-rule="evenodd" clip-rule="evenodd" d="M36.9989 13.5659C37.0004 11.5247 35.3436 9.86818 33.2983 9.86667C31.253 9.86818 29.5962 11.5247 29.5977 13.5659V17.2667H33.2983C35.3436 17.2652 37.0004 15.6086 36.9989 13.5659ZM27.1321 13.5659V3.69925C27.1336 1.65953 25.4783 0.00301733 23.433 0C21.3877 0.00150866 19.7309 1.65802 19.7324 3.69925V13.5659C19.7294 15.6071 21.3862 17.2637 23.4315 17.2667C25.4768 17.2652 27.1336 15.6086 27.1321 13.5659Z" fill="#2EB67D"/>
<path fill-rule="evenodd" clip-rule="evenodd" d="M23.433 36.9996C25.4783 36.9981 27.1351 35.3416 27.1336 33.3004C27.1351 31.2592 25.4783 29.6026 23.433 29.6011H19.7324V33.3004C19.7309 35.3401 21.3877 36.9966 23.433 36.9996ZM23.433 27.1314H33.2998C35.3451 27.1299 37.0019 25.4734 37.0004 23.4322C37.0034 21.391 35.3466 19.7345 33.3013 19.7314H23.4345C21.3892 19.733 19.7324 21.3895 19.7339 23.4307C19.7324 25.4734 21.3877 27.1299 23.433 27.1314Z" fill="#ECB22E"/>
<path fill-rule="evenodd" clip-rule="evenodd" d="M1.03363e-06 23.4317C-0.00151065 25.4729 1.6553 27.1294 3.70061 27.1309C5.74591 27.1294 7.40272 25.4729 7.40121 23.4317V19.7324H3.70061C1.6553 19.7339 -0.00151065 21.3904 1.03363e-06 23.4317ZM9.86677 23.4317V33.2983C9.86374 35.3396 11.5206 36.9961 13.5659 36.9991C15.6112 36.9976 17.268 35.3411 17.2665 33.2998V23.4347C17.2695 21.3935 15.6127 19.7369 13.5674 19.7339C11.5205 19.7339 9.86526 21.3904 9.86677 23.4317C9.86677 23.4332 9.86677 23.4317 9.86677 23.4317Z" fill="#E01E5A"/>
</g>
<defs>
<clipPath id="clip0_11_38541">
<rect width="37" height="37" fill="white"/>
</clipPath>
</defs>
</svg>
