<svg width="16" height="16" viewBox="0 0 16 16" fill="none" xmlns="http://www.w3.org/2000/svg">
<g clip-path="url(#clip0_11_38738)">
<path d="M8.45055 5.2149C9.71765 5.2149 10.7448 4.19337 10.7448 2.93326C10.7448 1.67314 9.71765 0.651611 8.45055 0.651611C7.18344 0.651611 6.15625 1.67314 6.15625 2.93326C6.15625 4.19337 7.18344 5.2149 8.45055 5.2149Z" fill="#7B83EB"/>
<path opacity="0.1" d="M8.28893 3.42188H6.21094L6.22126 3.46734L6.22224 3.47125L6.23306 3.5133C6.38405 4.08271 6.75039 4.5721 7.25559 4.87929C7.76078 5.18647 8.36577 5.2877 8.94423 5.16183V4.07356C8.94372 3.90088 8.87451 3.73542 8.75173 3.61332C8.62895 3.49122 8.46257 3.42239 8.28893 3.42188Z" fill="black"/>
<path opacity="0.2" d="M7.79595 3.91089H6.37817C6.56425 4.30103 6.85782 4.63066 7.22479 4.86147C7.59176 5.09227 8.01705 5.21478 8.45125 5.21476V4.56258C8.45073 4.3899 8.38153 4.22444 8.25874 4.10233C8.13596 3.98023 7.96959 3.9114 7.79595 3.91089Z" fill="black"/>
<path d="M13.6144 5.37779C14.5647 5.37779 15.335 4.6117 15.335 3.66668C15.335 2.72166 14.5647 1.95557 13.6144 1.95557C12.6641 1.95557 11.8938 2.72166 11.8938 3.66668C11.8938 4.6117 12.6641 5.37779 13.6144 5.37779Z" fill="#5059C9"/>
<path d="M15.0889 5.86646H11.2245C11.141 5.86646 11.061 5.89942 11.002 5.9581C10.943 6.01678 10.9099 6.09636 10.9099 6.17934V10.1442C10.8992 10.7181 11.0871 11.2781 11.4421 11.7306C11.7972 12.1831 12.2977 12.5005 12.86 12.6297C13.2182 12.7045 13.5885 12.6988 13.9442 12.6133C14.2998 12.5277 14.6318 12.3643 14.916 12.135C15.2001 11.9057 15.4293 11.6163 15.5868 11.2878C15.7443 10.9593 15.8261 10.6 15.8263 10.2361V6.59979C15.8263 6.4053 15.7487 6.21877 15.6104 6.08124C15.4721 5.94372 15.2845 5.86646 15.0889 5.86646Z" fill="#5059C9"/>
<path d="M12.3844 6.59979V11.2442C12.3849 12.1049 12.0997 12.9417 11.573 13.6248C11.0464 14.3078 10.3078 14.7989 9.47183 15.0218C8.63586 15.2446 7.7493 15.1869 6.94972 14.8574C6.15014 14.528 5.48226 13.9453 5.04973 13.1998C4.95513 13.0434 4.87295 12.88 4.80393 12.7109C4.73958 12.5515 4.6854 12.3882 4.6417 12.222C4.56065 11.9023 4.51938 11.5739 4.5188 11.2442V6.59979C4.51867 6.50345 4.53766 6.40803 4.57467 6.319C4.61168 6.22997 4.66599 6.14908 4.73449 6.08096C4.80299 6.01284 4.88433 5.95882 4.97386 5.92202C5.06338 5.88521 5.15933 5.86633 5.2562 5.86646H11.647C11.7439 5.86633 11.8398 5.88521 11.9293 5.92202C12.0189 5.95882 12.1002 6.01284 12.1687 6.08096C12.2372 6.14908 12.2915 6.22997 12.3285 6.319C12.3655 6.40803 12.3845 6.50345 12.3844 6.59979Z" fill="#7B83EB"/>
<path opacity="0.2" d="M7.79595 3.91089H6.37817C6.56425 4.30103 6.85782 4.63066 7.22479 4.86147C7.59176 5.09227 8.01705 5.21478 8.45125 5.21476V4.56258C8.45073 4.3899 8.38153 4.22444 8.25874 4.10233C8.13596 3.98023 7.96959 3.9114 7.79595 3.91089Z" fill="black"/>
<path opacity="0.1" d="M8.9432 5.86646V12.0607C8.9432 12.2081 8.89248 12.351 8.79947 12.4657C8.70646 12.5805 8.57676 12.6601 8.43194 12.6913C8.38569 12.705 8.33762 12.7116 8.28937 12.7109H4.80393C4.73958 12.5515 4.6854 12.3882 4.6417 12.222C4.56065 11.9023 4.51938 11.5739 4.5188 11.2442V6.59979C4.51867 6.50345 4.53766 6.40803 4.57467 6.319C4.61168 6.22997 4.66599 6.14908 4.73449 6.08096C4.80299 6.01284 4.88433 5.95882 4.97386 5.92202C5.06338 5.88521 5.15933 5.86633 5.2562 5.86646H8.9432Z" fill="black"/>
<path opacity="0.2" d="M8.4516 5.86646V12.5496C8.45232 12.5975 8.44569 12.6454 8.43194 12.6913C8.4005 12.8354 8.32044 12.9644 8.20507 13.0569C8.0897 13.1494 7.94597 13.1998 7.79777 13.1998H5.04973C4.95513 13.0434 4.87295 12.88 4.80393 12.7109C4.73958 12.5515 4.6854 12.3882 4.6417 12.222C4.56065 11.9023 4.51938 11.5739 4.5188 11.2442V6.59979C4.51867 6.50345 4.53766 6.40803 4.57467 6.319C4.61168 6.22997 4.66599 6.14908 4.73449 6.08096C4.80299 6.01284 4.88433 5.95882 4.97386 5.92202C5.06338 5.88521 5.15933 5.86633 5.2562 5.86646H8.4516Z" fill="black"/>
<path opacity="0.2" d="M8.4516 5.86646V11.5718C8.45082 11.744 8.38169 11.9089 8.25924 12.0307C8.13679 12.1525 7.97094 12.2212 7.79777 12.222H4.6417C4.56065 11.9023 4.51938 11.5739 4.5188 11.2442V6.59979C4.51867 6.50345 4.53766 6.40803 4.57467 6.319C4.61168 6.22997 4.66599 6.14908 4.73449 6.08096C4.80299 6.01284 4.88433 5.95882 4.97386 5.92202C5.06338 5.88521 5.15933 5.86633 5.2562 5.86646H8.4516Z" fill="black"/>
<path opacity="0.2" d="M5.2562 5.86646C5.15933 5.86633 5.06338 5.88521 4.97386 5.92202C4.88433 5.95882 4.80299 6.01284 4.73449 6.08096C4.66599 6.14908 4.61168 6.22997 4.57467 6.319C4.53766 6.40803 4.51867 6.50345 4.5188 6.59979V11.2442C4.51938 11.5739 4.56065 11.9023 4.6417 12.222H7.30617C7.47934 12.2212 7.64519 12.1525 7.76764 12.0307C7.89009 11.9089 7.95922 11.744 7.96 11.5718V5.86646H5.2562Z" fill="black"/>
<path d="M0.749053 3.91016H7.30405C7.47784 3.91016 7.64452 3.97882 7.76742 4.10103C7.89031 4.22325 7.95935 4.38901 7.95935 4.56185V11.0807C7.95935 11.2535 7.89031 11.4193 7.76742 11.5415C7.64452 11.6637 7.47784 11.7324 7.30405 11.7324H0.749053C0.575256 11.7324 0.408577 11.6637 0.285684 11.5415C0.162791 11.4193 0.09375 11.2535 0.09375 11.0807L0.09375 4.56185C0.09375 4.38901 0.162791 4.22325 0.285684 4.10103C0.408577 3.97882 0.575256 3.91016 0.749053 3.91016Z" fill="#4B53BC"/>
<path d="M5.98345 6.34275H4.51356V10.2636H3.54905V6.34275H2.07031V5.37964H5.98345V6.34275Z" fill="white"/>
</g>
<defs>
<clipPath id="clip0_11_38738">
<rect width="16" height="15.6444" fill="white"/>
</clipPath>
</defs>
</svg>
