<svg width="33" height="33" viewBox="0 0 33 33" fill="none" xmlns="http://www.w3.org/2000/svg">
<path fill-rule="evenodd" clip-rule="evenodd" d="M28.6926 0H3.87022C2.84468 -9.2939e-07 1.86108 0.406178 1.13542 1.12933C0.409774 1.85248 0.00141376 2.83347 3.16356e-05 3.85685V28.5906C-0.00202858 29.0991 0.0965563 29.603 0.290129 30.0734C0.483701 30.5438 0.76845 30.9714 1.12804 31.3316C1.48762 31.6919 1.91496 31.9778 2.38554 32.1729C2.85611 32.3679 3.36066 32.4683 3.87022 32.4683H28.6926C29.2017 32.4676 29.7057 32.3667 30.1757 32.1714C30.6456 31.976 31.0724 31.69 31.4314 31.3298C31.7904 30.9696 32.0747 30.5422 32.268 30.0722C32.4612 29.6022 32.5596 29.0987 32.5576 28.5906V3.85685C32.5562 2.83437 32.1485 1.85417 31.424 1.13117C30.6995 0.408165 29.7172 0.00137708 28.6926 0ZM14.0412 23.3857C14.0405 23.5557 14.0062 23.7238 13.9402 23.8805C13.8743 24.0372 13.7779 24.1794 13.6568 24.2988C13.5356 24.4183 13.392 24.5127 13.2342 24.5766C13.0764 24.6405 12.9075 24.6727 12.7372 24.6713H7.3127C6.97192 24.67 6.64557 24.5339 6.40509 24.293C6.16461 24.052 6.02959 23.7258 6.02959 23.3857V7.27648C6.02959 6.93642 6.16461 6.6102 6.40509 6.36925C6.64557 6.1283 6.97192 5.99224 7.3127 5.99087H12.7372C13.0785 5.99224 13.4054 6.12813 13.6467 6.36893C13.888 6.60973 14.0242 6.93594 14.0255 7.27648L14.0412 23.3857ZM26.5593 15.9895C26.5593 16.1597 26.5255 16.3281 26.4598 16.4851C26.394 16.6421 26.2977 16.7846 26.1764 16.9042C26.0552 17.0237 25.9113 17.1181 25.7532 17.1818C25.595 17.2455 25.4258 17.2772 25.2553 17.2751H19.8308C19.4896 17.2738 19.1627 17.1379 18.9214 16.8971C18.68 16.6563 18.5439 16.3301 18.5425 15.9895V7.27648C18.5439 6.93594 18.68 6.60973 18.9214 6.36893C19.1627 6.12813 19.4896 5.99224 19.8308 5.99087H25.2553C25.5961 5.99224 25.9225 6.1283 26.1629 6.36925C26.4034 6.6102 26.5384 6.93642 26.5384 7.27648L26.5593 15.9895Z" fill="url(#paint0_linear_11_38537)"/>
<defs>
<linearGradient id="paint0_linear_11_38537" x1="16.2944" y1="32.4683" x2="16.2944" y2="0" gradientUnits="userSpaceOnUse">
<stop stop-color="#0052CC"/>
<stop offset="1" stop-color="#2684FF"/>
</linearGradient>
</defs>
</svg>
