<svg width="49" height="49" viewBox="0 0 49 49" fill="none" xmlns="http://www.w3.org/2000/svg">
<rect x="0.5" y="0.5" width="48" height="48" rx="24" stroke="black" stroke-opacity="0.05"/>
<path d="M36.1435 17.4376C35.3085 17.8076 34.4115 18.0576 33.4685 18.1706C34.4415 17.5884 35.1694 16.672 35.5165 15.5926C34.6023 16.1356 33.6018 16.5178 32.5585 16.7226C31.8569 15.9734 30.9276 15.4769 29.9148 15.31C28.9021 15.1432 27.8626 15.3154 26.9577 15.7998C26.0529 16.2843 25.3333 17.0539 24.9107 17.9893C24.488 18.9246 24.386 19.9733 24.6205 20.9726C22.7682 20.8796 20.9561 20.3981 19.3019 19.5595C17.6477 18.7208 16.1883 17.5437 15.0185 16.1046C14.6185 16.7946 14.3885 17.5946 14.3885 18.4466C14.3881 19.2136 14.5769 19.9688 14.9384 20.6453C15.2998 21.3218 15.8227 21.8986 16.4605 22.3246C15.7208 22.301 14.9974 22.1011 14.3505 21.7416V21.8016C14.3504 22.8773 14.7225 23.9199 15.4037 24.7526C16.0848 25.5852 17.0331 26.1565 18.0875 26.3696C17.4013 26.5553 16.6818 26.5826 15.9835 26.4496C16.281 27.3752 16.8605 28.1846 17.6409 28.7645C18.4212 29.3444 19.3634 29.6657 20.3355 29.6836C18.6853 30.979 16.6474 31.6817 14.5495 31.6786C14.1779 31.6787 13.8066 31.657 13.4375 31.6136C15.567 32.9827 18.0458 33.7094 20.5775 33.7066C29.1475 33.7066 33.8325 26.6086 33.8325 20.4526C33.8325 20.2526 33.8275 20.0506 33.8185 19.8506C34.7298 19.1915 35.5164 18.3755 36.1415 17.4406L36.1435 17.4376Z" fill="black"/>
</svg>
