<svg width="32" height="32" viewBox="0 0 32 32" fill="none" xmlns="http://www.w3.org/2000/svg">
<path d="M14.0001 18.0002V24.4502C13.9999 24.598 13.9674 24.744 13.9048 24.8779C13.8421 25.0117 13.7509 25.1303 13.6376 25.2252C13.4588 25.3738 13.2327 25.4536 13.0001 25.4502H12.8251L4.82512 24.0002C4.59124 23.9586 4.37979 23.8352 4.22863 23.652C4.07746 23.4687 3.99646 23.2377 4.00012 23.0002V18.0002C4.00012 17.735 4.10548 17.4806 4.29301 17.2931C4.48055 17.1055 4.7349 17.0002 5.00012 17.0002H13.0001C13.2653 17.0002 13.5197 17.1055 13.7072 17.2931C13.8948 17.4806 14.0001 17.735 14.0001 18.0002ZM13.6376 6.77519C13.5257 6.68297 13.3951 6.6162 13.2548 6.57951C13.1145 6.54281 12.9679 6.53707 12.8251 6.56269L4.82512 8.01268C4.59338 8.05387 4.3836 8.17548 4.23269 8.35611C4.08178 8.53674 3.99943 8.76481 4.00012 9.00019V14.0002C4.00012 14.2654 4.10548 14.5198 4.29301 14.7073C4.48055 14.8948 4.7349 15.0002 5.00012 15.0002H13.0001C13.2653 15.0002 13.5197 14.8948 13.7072 14.7073C13.8948 14.5198 14.0001 14.2654 14.0001 14.0002V7.55019C13.9999 7.40238 13.9674 7.2564 13.9048 7.12251C13.8421 6.98863 13.7509 6.87008 13.6376 6.77519ZM27.0001 17.0002H17.0001C16.7349 17.0002 16.4805 17.1055 16.293 17.2931C16.1055 17.4806 16.0001 17.735 16.0001 18.0002V25.1877C16.0024 25.4209 16.086 25.646 16.2367 25.8241C16.3873 26.0021 16.5955 26.1219 16.8251 26.1627L26.8251 27.9877H27.0001C27.2351 27.9924 27.463 27.9075 27.6376 27.7502C27.749 27.6591 27.8392 27.5448 27.9018 27.4153C27.9644 27.2857 27.998 27.1441 28.0001 27.0002V18.0002C28.0001 17.735 27.8948 17.4806 27.7072 17.2931C27.5197 17.1055 27.2653 17.0002 27.0001 17.0002ZM27.6376 4.23769C27.5281 4.14099 27.3981 4.07047 27.2573 4.03149C27.1165 3.99251 26.9687 3.98608 26.8251 4.01268L16.8251 5.83769C16.5955 5.87849 16.3873 5.99828 16.2367 6.17632C16.086 6.35436 16.0024 6.57947 16.0001 6.81269V14.0002C16.0001 14.2654 16.1055 14.5198 16.293 14.7073C16.4805 14.8948 16.7349 15.0002 17.0001 15.0002H27.0001C27.2653 15.0002 27.5197 14.8948 27.7072 14.7073C27.8948 14.5198 28.0001 14.2654 28.0001 14.0002V5.00019C27.9998 4.8542 27.9671 4.71009 27.9045 4.57824C27.8418 4.44639 27.7506 4.33008 27.6376 4.23769Z" fill="white"/>
</svg>
