<svg width="56" height="56" viewBox="0 0 56 56" fill="none" xmlns="http://www.w3.org/2000/svg">
<rect width="56" height="56" rx="28" fill="#FF4A00" fill-opacity="0.08"/>
<g clip-path="url(#clip0_11_39943)">
<path d="M31.4999 28.0061C31.5004 29.0157 31.3182 30.0171 30.9623 30.9619C30.0172 31.3178 29.0156 31.5002 28.0057 31.5003H27.9939C26.9539 31.499 25.9575 31.3089 25.0381 30.9623C24.682 30.0174 24.4997 29.0159 24.5 28.0061V27.9939C24.4995 26.9845 24.6814 25.9833 25.037 25.0386C25.9821 24.682 26.9839 24.4995 27.994 24.5H28.0058C29.0158 24.4995 30.0175 24.6819 30.9624 25.0385C31.3184 25.9831 31.5005 26.9843 31.5 27.9938V28.006L31.4999 28.0061ZM41.8055 25.6667H33.6335L39.4116 19.8881C38.9581 19.251 38.4522 18.6529 37.8992 18.0999V18.0995C37.3462 17.5471 36.7482 17.0417 36.1115 16.5884L30.3329 22.367V14.1949C29.5643 14.0656 28.7863 14.0004 28.007 14L27.9926 14C27.1998 14.0004 26.4234 14.0678 25.6667 14.1949V22.367L19.8881 16.5884C19.2513 17.0416 18.6535 17.5474 18.1012 18.1005L18.0982 18.1027C17.5461 18.6549 17.0409 19.2521 16.5878 19.8881L22.3669 25.6667H14.1949C14.1949 25.6667 14 27.2016 14 27.9952V28.0048C14 28.7984 14.0673 29.5762 14.1949 30.3333H22.367L16.5879 36.1119C17.497 37.3877 18.6123 38.503 19.8881 39.4121L25.6667 33.633V41.8055C26.4344 41.9342 27.2114 41.9992 27.9898 42H28.0096C28.788 41.9993 29.5651 41.9343 30.3328 41.8055V33.633L36.1119 39.4121C36.7485 38.9586 37.3463 38.453 37.8992 37.9005L37.9005 37.8992C38.4528 37.3462 38.9582 36.7484 39.4116 36.1119L33.6326 30.3333H41.8055C41.9327 29.5775 41.9991 28.802 42 28.0102V27.9898C41.9991 27.198 41.9327 26.4225 41.8055 25.6667Z" fill="#FF4A00"/>
</g>
<defs>
<clipPath id="clip0_11_39943">
<rect width="28" height="28" fill="white" transform="translate(14 14)"/>
</clipPath>
</defs>
</svg>
