<svg width="56" height="56" viewBox="0 0 56 56" fill="none" xmlns="http://www.w3.org/2000/svg">
<rect width="56" height="56" rx="28" fill="#4A8CFF" fill-opacity="0.1"/>
<g clip-path="url(#clip0_11_40081)">
<path d="M28 42C35.732 42 42 35.732 42 28C42 20.268 35.732 14 28 14C20.268 14 14 20.268 14 28C14 35.732 20.268 42 28 42Z" fill="#4A8CFF"/>
<path d="M19.0173 23.6168V30.196C19.0208 30.9096 19.3074 31.5926 19.8142 32.095C20.321 32.5973 21.0065 32.8779 21.7201 32.8751H31.3103C31.4399 32.8757 31.5645 32.8249 31.6568 32.7338C31.749 32.6427 31.8013 32.5187 31.8023 32.3891V25.8099C31.7988 25.0963 31.5122 24.4133 31.0054 23.9109C30.4986 23.4086 29.8131 23.128 29.0995 23.1308H19.5123C19.4478 23.1301 19.3839 23.1421 19.3241 23.1662C19.2643 23.1903 19.2099 23.2259 19.1639 23.2711C19.1179 23.3162 19.0813 23.37 19.0561 23.4293C19.031 23.4887 19.0178 23.5524 19.0173 23.6168ZM32.4128 26.1833L36.3721 23.2908C36.7159 23.0057 36.9826 23.0775 36.9826 23.5931V32.4128C36.9826 32.9996 36.6566 32.9284 36.3721 32.7145L32.4128 29.8285V26.1833Z" fill="white"/>
</g>
<defs>
<clipPath id="clip0_11_40081">
<rect width="28" height="28" fill="white" transform="translate(14 14)"/>
</clipPath>
</defs>
</svg>
